<svg xmlns="http://www.w3.org/2000/svg" style="display:none">
  <symbol id="shield" viewBox="0 0 24 24" fill="none" stroke="currentColor" stroke-width="1.9" stroke-linecap="round" stroke-linejoin="round">
    <path d="M12 3l7 3v5c0 5-3.5 8-7 10-3.5-2-7-5-7-10V6l7-3z"/>
    <path d="M9 12l2 2 4-4"/>
  </symbol>
  <symbol id="whatsapp" viewBox="0 0 24 24" fill="currentColor">
    <path d="M20.52 3.48A11.86 11.86 0 0 0 12.06 0C5.48 0 .14 5.35.14 11.95c0 2.1.55 4.14 1.58 5.95L0 24l6.28-1.64a11.9 11.9 0 0 0 5.78 1.48h.01c6.58 0 11.93-5.35 11.93-11.95 0-3.19-1.24-6.18-3.48-8.41zm-8.45 18.34h-.01a9.96 9.96 0 0 1-5.07-1.39l-.36-.21-3.73.97 1-3.63-.24-.37a9.94 9.94 0 0 1-1.54-5.24c0-5.5 4.47-9.97 9.97-9.97 2.66 0 5.16 1.03 7.04 2.92a9.88 9.88 0 0 1 2.92 7.05c0 5.5-4.48 9.97-9.98 9.97zm5.47-7.47c-.3-.15-1.77-.87-2.05-.97-.27-.1-.47-.15-.67.15s-.77.97-.95 1.17-.35.22-.65.07a8.12 8.12 0 0 1-2.39-1.48 8.94 8.94 0 0 1-1.66-2.05c-.18-.3-.02-.47.13-.62.13-.13.3-.35.45-.52.15-.18.2-.3.3-.5.1-.2.05-.37-.02-.52-.08-.15-.67-1.62-.92-2.22-.24-.58-.48-.5-.67-.5h-.57c-.2 0-.52.07-.8.37s-1.04 1.02-1.04 2.49 1.07 2.89 1.22 3.09c.15.2 2.1 3.22 5.09 4.51.71.31 1.27.49 1.71.63.72.23 1.38.2 1.9.12.58-.09 1.77-.72 2.03-1.41.25-.69.25-1.28.17-1.41-.07-.13-.27-.2-.57-.35z"/>
  </symbol>
  <symbol id="award" viewBox="0 0 24 24" fill="none" stroke="currentColor" stroke-width="1.9" stroke-linecap="round" stroke-linejoin="round">
    <circle cx="12" cy="8" r="5"/>
    <path d="M8.2 13.9L6 21l6-3 6 3-2.2-7.1"/>
  </symbol>
  <symbol id="check-circle" viewBox="0 0 24 24" fill="none" stroke="currentColor" stroke-width="2" stroke-linecap="round" stroke-linejoin="round">
    <circle cx="12" cy="12" r="9"/>
    <path d="M8.5 12.2l2.3 2.4 4.8-5"/>
  </symbol>
  <symbol id="home" viewBox="0 0 24 24" fill="none" stroke="currentColor" stroke-width="1.9" stroke-linecap="round" stroke-linejoin="round">
    <path d="M3 11.2L12 4l9 7.2"/>
    <path d="M5 10.8V20h14v-9.2"/>
    <path d="M9.5 20v-5h5v5"/>
  </symbol>
  <symbol id="layers" viewBox="0 0 24 24" fill="none" stroke="currentColor" stroke-width="1.9" stroke-linecap="round" stroke-linejoin="round">
    <path d="M12 3l9 5-9 5-9-5 9-5z"/>
    <path d="M3 12l9 5 9-5"/>
    <path d="M3 16l9 5 9-5"/>
  </symbol>
  <symbol id="phone" viewBox="0 0 24 24" fill="none" stroke="currentColor" stroke-width="1.9" stroke-linecap="round" stroke-linejoin="round">
    <path d="M22 16.92v3a2 2 0 0 1-2.18 2 19.8 19.8 0 0 1-8.63-3.07 19.3 19.3 0 0 1-6-6A19.8 19.8 0 0 1 2.12 4.18 2 2 0 0 1 4.11 2h3a2 2 0 0 1 2 1.72c.12.9.33 1.78.63 2.62a2 2 0 0 1-.45 2.11L8 9.73a16 16 0 0 0 6.27 6.27l1.28-1.29a2 2 0 0 1 2.11-.45c.84.3 1.72.51 2.62.63A2 2 0 0 1 22 16.92z"/>
  </symbol>
  <symbol id="pool" viewBox="0 0 24 24" fill="none" stroke="currentColor" stroke-width="1.9" stroke-linecap="round" stroke-linejoin="round">
    <path d="M7 3v10"/>
    <path d="M7 5h5a3 3 0 0 1 0 6H7"/>
    <path d="M3 18c1.3 1 2.7 1.5 4 1.5s2.7-.5 4-1.5c1.3 1 2.7 1.5 4 1.5s2.7-.5 4-1.5"/>
    <path d="M3 21c1.3 1 2.7 1.5 4 1.5S9.7 22 11 21c1.3 1 2.7 1.5 4 1.5s2.7-.5 4-1.5"/>
  </symbol>
  <symbol id="bath" viewBox="0 0 24 24" fill="none" stroke="currentColor" stroke-width="1.9" stroke-linecap="round" stroke-linejoin="round">
    <path d="M7 10V6a3 3 0 0 1 6 0"/>
    <path d="M4 11h16v2a5 5 0 0 1-5 5H9a5 5 0 0 1-5-5v-2z"/>
    <path d="M6 18v2"/>
    <path d="M18 18v2"/>
    <path d="M10 6h4"/>
  </symbol>
  <symbol id="faucet" viewBox="0 0 24 24" fill="none" stroke="currentColor" stroke-width="1.9" stroke-linecap="round" stroke-linejoin="round">
    <path d="M12 4h6"/>
    <path d="M15 4v4"/>
    <path d="M6 8h12a2 2 0 0 1 2 2v2H4v-2a2 2 0 0 1 2-2z"/>
    <path d="M8 12v3a4 4 0 0 0 8 0v-3"/>
    <path d="M16 20a1.5 1.5 0 1 0 0-3 1.5 1.5 0 0 0 0 3z"/>
  </symbol>
  <symbol id="building" viewBox="0 0 24 24" fill="none" stroke="currentColor" stroke-width="1.9" stroke-linecap="round" stroke-linejoin="round">
    <path d="M4 21V5a1 1 0 0 1 1-1h8a1 1 0 0 1 1 1v16"/>
    <path d="M14 9h5a1 1 0 0 1 1 1v11"/>
    <path d="M8 8h2M8 12h2M8 16h2M12 8h2M12 12h2M12 16h2M17 13h1M17 17h1"/>
  </symbol>
  <symbol id="droplet-shield" viewBox="0 0 24 24" fill="none" stroke="currentColor" stroke-width="1.9" stroke-linecap="round" stroke-linejoin="round">
    <path d="M12 3s-4 4.2-4 7.5a4 4 0 0 0 8 0C16 7.2 12 3 12 3z"/>
    <path d="M12 13l7 3v2c0 2.5-1.7 4.2-4 5-2.3-.8-4-2.5-4-5v-2l1-.4"/>
  </symbol>
  <symbol id="flame" viewBox="0 0 24 24" fill="none" stroke="currentColor" stroke-width="1.9" stroke-linecap="round" stroke-linejoin="round">
    <path d="M12 3s4 3.5 4 7.5c0 2.2-1.8 4-4 4s-4-1.8-4-4c0-2 1-3.5 2.2-4.8"/>
    <path d="M8 14a5 5 0 0 0 8 0c1.7 1.1 3 3 3 5a7 7 0 0 1-14 0c0-2 1.1-3.8 3-5z"/>
  </symbol>
  <symbol id="barrier" viewBox="0 0 24 24" fill="none" stroke="currentColor" stroke-width="1.9" stroke-linecap="round" stroke-linejoin="round">
    <path d="M3 14l12-8 6 4-12 8-6-4z"/>
    <path d="M8 16v5"/>
    <path d="M16 11v10"/>
    <path d="M6.5 11.8l2.4 1.6"/>
    <path d="M11 8.8l2.4 1.6"/>
    <path d="M15.5 5.8l2.4 1.6"/>
  </symbol>
  <symbol id="star" viewBox="0 0 24 24" fill="none" stroke="currentColor" stroke-width="1.9" stroke-linecap="round" stroke-linejoin="round">
    <path d="M12 3l2.8 5.7 6.2.9-4.5 4.4 1.1 6.2L12 17.2 6.4 20.2l1.1-6.2L3 9.6l6.2-.9L12 3z"/>
  </symbol>
  <symbol id="medal" viewBox="0 0 24 24" fill="none" stroke="currentColor" stroke-width="1.9" stroke-linecap="round" stroke-linejoin="round">
    <path d="M8 3l4 6 4-6"/>
    <circle cx="12" cy="15" r="5"/>
    <path d="M12 12v3l2 1"/>
  </symbol>
  <symbol id="bolt" viewBox="0 0 24 24" fill="none" stroke="currentColor" stroke-width="1.9" stroke-linecap="round" stroke-linejoin="round">
    <path d="M13 2L4 14h6l-1 8 9-12h-6l1-8z"/>
  </symbol>
  <symbol id="handshake" viewBox="0 0 24 24" fill="none" stroke="currentColor" stroke-width="1.9" stroke-linecap="round" stroke-linejoin="round">
    <path d="M9 11l3 3a2 2 0 0 0 3 0l4-4"/>
    <path d="M3 10l4-4a2 2 0 0 1 2.8 0L12 8.2l2.2-2.2a2 2 0 0 1 2.8 0l4 4"/>
    <path d="M2 12l4 4"/>
    <path d="M22 12l-4 4"/>
  </symbol>
  <symbol id="location" viewBox="0 0 24 24" fill="none" stroke="currentColor" stroke-width="1.9" stroke-linecap="round" stroke-linejoin="round">
    <path d="M12 21s7-5.5 7-11a7 7 0 1 0-14 0c0 5.5 7 11 7 11z"/>
    <circle cx="12" cy="10" r="2.5"/>
  </symbol>
  <symbol id="route" viewBox="0 0 24 24" fill="none" stroke="currentColor" stroke-width="1.9" stroke-linecap="round" stroke-linejoin="round">
    <circle cx="6" cy="18" r="2"/>
    <circle cx="18" cy="6" r="2"/>
    <path d="M8 18h4a4 4 0 0 0 4-4V8"/>
  </symbol>
  <symbol id="comments" viewBox="0 0 24 24" fill="none" stroke="currentColor" stroke-width="1.9" stroke-linecap="round" stroke-linejoin="round">
    <path d="M4 15a4 4 0 0 1-1-2.7V8a4 4 0 0 1 4-4h10a4 4 0 0 1 4 4v4.3a4 4 0 0 1-4 4H10l-5 4v-5.3A4 4 0 0 1 4 15z"/>
  </symbol>
  <symbol id="clock" viewBox="0 0 24 24" fill="none" stroke="currentColor" stroke-width="1.9" stroke-linecap="round" stroke-linejoin="round">
    <circle cx="12" cy="12" r="9"/>
    <path d="M12 7v5l3 2"/>
  </symbol>
  <symbol id="send" viewBox="0 0 24 24" fill="none" stroke="currentColor" stroke-width="1.9" stroke-linecap="round" stroke-linejoin="round">
    <path d="M22 2L11 13"/>
    <path d="M22 2l-7 20-4-9-9-4 20-7z"/>
  </symbol>
  <symbol id="water" viewBox="0 0 24 24" fill="none" stroke="currentColor" stroke-width="1.9" stroke-linecap="round" stroke-linejoin="round">
    <path d="M12 3s5 5.3 5 9a5 5 0 1 1-10 0c0-3.7 5-9 5-9z"/>
    <path d="M10 15c.5.7 1.2 1 2 1s1.5-.3 2-1"/>
  </symbol>
</svg>
